<svg width="47" height="45" viewBox="0 0 47 45" fill="none" xmlns="http://www.w3.org/2000/svg">
<path d="M8.26105 0.013916H38.0501C42.5665 0.013916 46.218 3.66545 46.218 8.18192V36.8179C46.218 41.3343 42.5665 44.9859 38.0501 44.9859H8.26105C3.74458 44.9858 0.0930481 41.3343 0.0930481 36.8178V8.18192C0.0930481 3.66545 3.74458 0.013916 8.26105 0.013916Z" fill="#390000"/>
<path d="M22.4448 26.997H15.2954L13.8348 31.5134C13.7964 31.6864 13.6427 31.8017 13.4697 31.7825H9.85655C9.64511 31.7825 9.58745 31.6672 9.64511 31.4366L15.8335 13.6208C15.8912 13.4286 15.9488 13.2172 16.0257 12.9866C16.1025 12.583 16.141 12.1602 16.141 11.7373C16.1218 11.6412 16.1986 11.5452 16.2948 11.5259H16.3524H21.2724C21.4262 11.5259 21.503 11.5835 21.5222 11.6797L28.5371 31.4749C28.5947 31.6864 28.5371 31.7824 28.3449 31.7824H24.3282C24.1937 31.8016 24.0591 31.7056 24.0207 31.571L22.4448 26.997ZM16.4101 23.0956H21.2917L18.8316 15.0814L16.4101 23.0956Z" fill="#FF9A00"/>
<path d="M32.7267 14.8126C32.0925 14.8317 31.4775 14.5819 31.0162 14.1399C30.5742 13.6594 30.3436 13.0252 30.3628 12.3717C30.3437 11.7183 30.5935 11.1033 31.0547 10.6612C31.516 10.2191 32.131 9.98853 32.7652 9.98853C33.5147 9.98853 34.0913 10.2191 34.5141 10.6612C34.9369 11.1225 35.1675 11.7375 35.1483 12.3717C35.1675 13.0251 34.9369 13.6593 34.4756 14.1399C34.0337 14.6011 33.3802 14.8509 32.7267 14.8126V14.8126Z" fill="#FF9A00"/>
<path d="M30.5743 31.4941V16.6956C30.5743 16.5034 30.6512 16.4265 30.8242 16.4265H34.6295C34.8024 16.4265 34.8793 16.5226 34.8793 16.6956V31.4941C34.8793 31.7055 34.8024 31.8015 34.6295 31.8015H30.8626C30.6704 31.8015 30.5743 31.6862 30.5743 31.4941V31.4941Z" fill="#FF9A00"/>
</svg>
