<svg width="46" height="45" viewBox="0 0 46 45" fill="none" xmlns="http://www.w3.org/2000/svg">
<path d="M0.883301 7.5C0.883301 3.35787 4.24117 0 8.3833 0H38.3833C42.5254 0 45.8833 3.35786 45.8833 7.5V37.5C45.8833 41.6421 42.5254 45 38.3833 45H8.3833C4.24117 45 0.883301 41.6421 0.883301 37.5V7.5Z" fill="white"/>
<path d="M19.8395 23.735C19.9526 21.718 20.9403 19.941 22.4304 18.6813C23.8917 17.444 25.8586 16.6877 28.0047 16.6877C30.1486 16.6877 32.1155 17.444 33.5779 18.6813C35.0669 19.941 36.0546 21.718 36.1688 23.7329C36.2818 25.8053 35.4488 27.7306 33.9875 29.1578C32.4974 30.6094 30.378 31.5203 28.0047 31.5203C25.6314 31.5203 23.5077 30.6094 22.0187 29.1578C20.5563 27.7306 19.7254 25.8053 19.8395 23.735V23.735Z" fill="white"/>
<path d="M23.8093 23.9175C23.8673 22.8826 24.3741 21.9708 25.1387 21.3244C25.8885 20.6895 26.8977 20.3015 27.9989 20.3015C29.099 20.3015 30.1082 20.6895 30.8586 21.3244C31.6226 21.9708 32.1294 22.8826 32.1879 23.9164C32.246 24.9798 31.8185 25.9677 31.0687 26.6999C30.3041 27.4448 29.2166 27.9122 27.9989 27.9122C26.7811 27.9122 25.6915 27.4448 24.9274 26.6999C24.1771 25.9677 23.7507 24.9798 23.8093 23.9175V23.9175Z" fill="#265787"/>
<path d="M17.1373 26.0133C17.1444 26.4183 17.2736 27.2053 17.4673 27.8199C17.8745 29.1209 18.5652 30.3244 19.5263 31.385C20.5125 32.4752 21.727 33.3509 23.1297 33.9726C24.6041 34.6256 26.2017 34.9583 27.8611 34.9556C29.5178 34.9534 31.1154 34.6141 32.5898 33.9562C33.9926 33.3285 35.2059 32.449 36.1905 31.3582C37.151 30.2932 37.8407 29.0875 38.2489 27.7866C38.4542 27.1293 38.5839 26.4621 38.6359 25.7928C38.6868 25.1333 38.6654 24.4727 38.5719 23.8126C38.3891 22.5265 37.9441 21.3197 37.2589 20.2196C36.6322 19.2088 35.8244 18.3238 34.8639 17.579L34.8661 17.5773L25.1728 10.1346C25.164 10.1281 25.1569 10.121 25.1476 10.1149C24.5117 9.62675 23.4422 9.6284 22.7428 10.1177C22.0357 10.6124 21.9547 11.4306 22.5841 11.9467L22.5813 11.9495L26.6242 15.2371L14.3017 15.2502H14.2853C13.2668 15.2513 12.2877 15.9195 12.0939 16.764C11.8947 17.6244 12.5865 18.338 13.6455 18.3419L13.6439 18.3457L19.8897 18.3337L8.74441 26.8884C8.73018 26.8988 8.71486 26.9098 8.70172 26.9202C7.65036 27.7253 7.31049 29.0639 7.97272 29.9111C8.64481 30.7726 10.0738 30.7742 11.1361 29.9161L17.2188 24.9379C17.2188 24.9379 17.1302 25.61 17.1373 26.0133V26.0133ZM32.7677 28.2638C31.5144 29.5406 29.7597 30.2647 27.8611 30.2685C25.9598 30.2718 24.2052 29.5543 22.9518 28.2797C22.3394 27.6585 21.8895 26.9437 21.612 26.1824C21.34 25.4343 21.2344 24.6401 21.3045 23.8389C21.3707 23.0557 21.6038 22.3087 21.976 21.6328C22.3416 20.9683 22.8451 20.368 23.4669 19.8601C24.6851 18.8673 26.2362 18.3298 27.8584 18.3276C29.4823 18.3255 31.0322 18.858 32.2516 19.8475C32.8722 20.3532 33.3752 20.9514 33.7408 21.6147C34.1146 22.2901 34.3461 23.0344 34.4151 23.8198C34.484 24.6199 34.3784 25.4129 34.1064 26.1616C33.8284 26.9251 33.3801 27.6399 32.7677 28.2638V28.2638Z" fill="#EA7600"/>
</svg>
