<svg width="46" height="45" viewBox="0 0 46 45" fill="none" xmlns="http://www.w3.org/2000/svg">
<path d="M0.578247 7.5C0.578247 3.35787 3.93611 0 8.07825 0H38.0782C42.2204 0 45.5782 3.35786 45.5782 7.5V37.5C45.5782 41.6421 42.2204 45 38.0782 45H8.07825C3.93611 45 0.578247 41.6421 0.578247 37.5V7.5Z" fill="#1E1E1E"/>
<path d="M23.0783 22.2495C23.0783 20.9897 23.5788 19.7816 24.4696 18.8908C25.3603 18 26.5685 17.4995 27.8283 17.4995C29.0881 17.4995 30.2963 18 31.1871 18.8908C32.0779 19.7816 32.5783 20.9897 32.5783 22.2495C32.5783 23.5093 32.0779 24.7175 31.1871 25.6083C30.2963 26.4991 29.0881 26.9995 27.8283 26.9995C26.5685 26.9995 25.3603 26.4991 24.4696 25.6083C23.5788 24.7175 23.0783 23.5093 23.0783 22.2495V22.2495Z" fill="#1ABCFE"/>
<path d="M13.5783 31.7495C13.5783 30.4897 14.0788 29.2816 14.9696 28.3908C15.8603 27.5 17.0685 26.9995 18.3283 26.9995H23.0783V31.7495C23.0783 33.0093 22.5779 34.2175 21.6871 35.1083C20.7963 35.9991 19.5881 36.4995 18.3283 36.4995C17.0685 36.4995 15.8603 35.9991 14.9696 35.1083C14.0788 34.2175 13.5783 33.0093 13.5783 31.7495V31.7495Z" fill="#0ACF83"/>
<path d="M23.0783 8V17.5H27.8283C29.0881 17.5 30.2963 16.9996 31.1871 16.1088C32.0779 15.218 32.5783 14.0098 32.5783 12.75C32.5783 11.4902 32.0779 10.282 31.1871 9.39124C30.2963 8.50044 29.0881 8 27.8283 8H23.0783Z" fill="#FF7262"/>
<path d="M13.5782 12.75C13.5782 14.0098 14.0786 15.218 14.9694 16.1088C15.8602 16.9996 17.0684 17.5 18.3282 17.5H23.0782V8H18.3282C17.0684 8 15.8602 8.50044 14.9694 9.39124C14.0786 10.282 13.5782 11.4902 13.5782 12.75V12.75Z" fill="#F24E1E"/>
<path d="M13.5783 22.2495C13.5783 23.5093 14.0788 24.7175 14.9696 25.6083C15.8603 26.4991 17.0685 26.9995 18.3283 26.9995H23.0783V17.4995H18.3283C17.0685 17.4995 15.8603 18 14.9696 18.8908C14.0788 19.7816 13.5783 20.9897 13.5783 22.2495V22.2495Z" fill="#A259FF"/>
</svg>
