<svg width="24" height="17" viewBox="0 0 24 17" fill="none" xmlns="http://www.w3.org/2000/svg">
<path d="M22.8 2.4H1.2C0.48 2.4 0 1.92 0 1.2C0 0.48 0.48 0 1.2 0H22.8C23.52 0 24 0.48 24 1.2C24 1.92 23.52 2.4 22.8 2.4Z" fill="#625B71"/>
<path d="M22.8 16.7999H1.2C0.48 16.7999 0 16.3199 0 15.5999C0 14.8799 0.48 14.3999 1.2 14.3999H22.8C23.52 14.3999 24 14.8799 24 15.5999C24 16.3199 23.52 16.7999 22.8 16.7999Z" fill="#625B71"/>
<path d="M22.2482 9.59995H1.75182C0.70073 9.59995 0 9.11995 0 8.39995C0 7.67995 0.70073 7.19995 1.75182 7.19995H22.2482C23.2993 7.19995 24 7.67995 24 8.39995C24 9.11995 23.2993 9.59995 22.2482 9.59995Z" fill="#625B71"/>
</svg>
