<svg width="132" height="64" viewBox="0 0 132 64" fill="none" xmlns="http://www.w3.org/2000/svg">
<path d="M0 28.5068L2.49695 27.8826V1.24847L0 0.624236V0H11.8605V0.624236L9.36355 1.24847V14.3158L19.5594 1.87271L16.4382 0.624236V0H24.3452V0.624236L21.016 1.87271L13.7332 10.8201L24.9695 27.8826L27.0502 28.5068V29.131H21.224C19.9756 29.131 18.9074 28.8259 18.0196 28.2155C17.1596 27.5774 16.355 26.7035 15.6059 25.5937L9.36355 16.0221V27.8826L11.8605 28.5068V29.131H0V28.5068Z" fill="#FF8A00"/>
<path d="M28.3166 62.0205L30.8135 61.3963V9.57163L28.3166 8.94739V8.32315H33.7267C36.2236 8.32315 37.4721 9.57163 37.4721 12.0686V61.3963L39.969 62.0205V62.6447H28.3166V62.0205ZM33.7267 5.82621C32.8943 5.82621 32.2007 5.54877 31.6459 4.99389C31.091 4.43902 30.8135 3.74542 30.8135 2.9131C30.8135 2.08079 31.091 1.38719 31.6459 0.832317C32.2007 0.277439 32.8943 0 33.7267 0C34.559 0 35.2526 0.277439 35.8074 0.832317C36.3623 1.38719 36.6398 2.08079 36.6398 2.9131C36.6398 3.74542 36.3623 4.43902 35.8074 4.99389C35.2526 5.54877 34.559 5.82621 33.7267 5.82621Z" fill="#FF8A00"/>
<path d="M53.2796 29.7553C51.4485 29.7553 49.8532 29.4223 48.4937 28.7565C47.162 28.0906 46.1355 27.1751 45.4142 26.0099C44.6928 24.8446 44.3322 23.5268 44.3322 22.0564V9.36355H41.4191V8.32315H44.3322V6.24237C44.3322 3.74542 45.5806 2.49695 48.0776 2.49695H50.9907V8.32315H56.8169V9.36355H50.9907V22.0564C50.9907 24.6088 51.2543 26.3567 51.7814 27.2999C52.3085 28.2432 53.0854 28.7149 54.1119 28.7149C55.1106 28.7149 55.9846 28.2294 56.7337 27.2583C57.4828 26.2873 57.8573 24.9695 57.8573 23.3048H58.8977C58.8977 25.3579 58.3844 26.9531 57.3579 28.0906C56.3314 29.2004 54.9719 29.7553 53.2796 29.7553Z" fill="#FF8A00"/>
<path d="M61.1946 62.6447L63.6915 62.0205V1.24847L61.1946 0.624236V0H66.6046C69.1016 0 70.35 1.24847 70.35 3.74542V25.5937C70.7662 25.0388 71.1962 24.5949 71.6401 24.262C72.8331 23.3464 74.2064 22.8887 75.7601 22.8887C77.3138 22.8887 78.7009 23.2216 79.9217 23.8874C81.1701 24.5256 82.1412 25.3717 82.8348 26.426C83.5284 27.4803 83.8752 28.59 83.8752 29.7553V62.0205L86.3721 62.6447V63.269H80.9621C78.4651 63.269 77.2167 62.0205 77.2167 59.5235V29.7553C77.2167 28.0074 76.8976 26.6757 76.2595 25.7602C75.6491 24.8169 74.9278 24.3452 74.0955 24.3452C73.0412 24.3452 72.0979 24.9001 71.2656 26.0098C70.9049 26.4815 70.5997 27.0364 70.35 27.6745V62.0205L72.847 62.6447V63.269H61.1946V62.6447Z" fill="#FF007A"/>
<path d="M0 62.0549L2.41079 61.4478V35.5471L0 34.9401V34.333H10.6476C15.2014 34.333 18.4827 35.0345 20.4917 36.4374C22.5007 37.8134 23.5052 39.7425 23.5052 42.2246C23.5052 43.8974 23.0632 45.2599 22.1792 46.3121C21.2953 47.3373 20.1569 48.1063 18.764 48.6189C17.2907 49.1855 15.7237 49.4822 14.0629 49.5092V49.7116C15.054 49.7655 15.9246 49.9139 16.6746 50.1567C18.5497 50.7503 19.822 51.816 20.4917 53.3539L24.1079 61.4478L26.1169 62.0549V62.6619H20.4917C18.2952 62.6619 16.688 61.5153 15.6701 59.222L11.6521 50.1163H9.04045V61.4478L11.853 62.0549V62.6619H0V62.0549ZM10.6476 49.1045C12.5227 49.1045 13.996 48.511 15.0674 47.3238C16.1389 46.1367 16.6746 44.437 16.6746 42.2246C16.6746 40.0123 16.1389 38.3125 15.0674 37.1254C13.996 35.9383 12.5227 35.3448 10.6476 35.3448H9.04045V49.1045H10.6476Z" fill="#00A3FF"/>
<path d="M52.2353 63.269C48.8066 63.269 46.1414 62.3247 44.2395 60.4361C42.3377 58.5205 41.3867 55.89 41.3867 52.5445C41.3867 49.1989 42.3377 46.5819 44.2395 44.6933C46.1414 42.7777 48.8066 41.8199 52.2353 41.8199C54.6996 41.8199 56.5479 42.2516 57.7801 43.115C59.0391 43.9783 59.6685 45.0305 59.6685 46.2716C59.6685 47.1889 59.3873 47.9309 58.8248 48.4975C58.289 49.0371 57.5658 49.3069 56.6551 49.3069C56.2801 49.3069 55.905 49.2799 55.53 49.2259L55.0479 49.1045V43.034L54.4854 42.8317C54.0836 42.6968 53.6014 42.6293 53.0389 42.6293C51.5121 42.6293 50.3201 43.3578 49.4629 44.8147C48.6325 46.2716 48.2173 48.8482 48.2173 52.5445C48.2173 56.1328 48.6325 58.6554 49.4629 60.1123C50.3201 61.5423 51.5121 62.2572 53.0389 62.2572C54.0836 62.2572 55.0479 62.0144 55.9318 61.5288C56.8426 61.0161 57.5524 60.3551 58.0614 59.5457C58.5971 58.7094 58.865 57.8595 58.865 56.9961H59.8694C59.8694 58.0753 59.548 59.1006 58.9051 60.0719C58.2623 61.0431 57.3649 61.8255 56.2131 62.4191C55.0613 62.9857 53.7353 63.269 52.2353 63.269Z" fill="#00A3FF"/>
<path d="M89.4141 62.0549L91.8249 61.4478V43.6411L89.4141 43.034V42.427H93.0303C94.6107 42.427 95.8563 42.9396 96.767 43.9648C97.1153 44.3695 97.4099 44.8687 97.651 45.4622C98.0528 44.8687 98.5483 44.3291 99.1376 43.8434C100.477 42.7642 101.977 42.2246 103.638 42.2246C105.057 42.2246 106.116 42.5619 106.812 43.2364C107.535 43.8839 107.897 44.8282 107.897 46.0693C107.897 46.9866 107.616 47.7285 107.053 48.2951C106.517 48.8347 105.794 49.1045 104.883 49.1045C104.508 49.1045 104.133 49.0775 103.758 49.0236L103.276 48.9022V43.2364C101.91 43.2364 100.664 43.776 99.5395 44.8552C99.0037 45.3948 98.5751 45.9344 98.2537 46.474V61.4478L100.664 62.0549V62.6619H89.4141V62.0549Z" fill="#00A3FF"/>
<path d="M117.937 63.269C116.357 63.269 114.95 62.8643 113.718 62.0549C112.486 61.2185 111.508 60.0044 110.785 58.4126C110.062 56.7938 109.7 54.8377 109.7 52.5445C109.7 49.091 110.49 46.447 112.071 44.6124C113.678 42.7507 115.834 41.8199 118.54 41.8199C119.826 41.8199 120.951 42.0897 121.915 42.6293C122.317 42.8182 122.732 43.088 123.16 43.4387V35.5471L120.75 34.9401V34.333H125.973C128.384 34.333 129.589 35.5471 129.589 37.9753V61.4478L132 62.0549V62.6619H128.384C126.777 62.6619 125.531 62.1628 124.647 61.1645C124.272 60.7598 123.977 60.2472 123.763 59.6267C123.415 60.3012 122.973 60.9082 122.437 61.4478C121.232 62.6619 119.732 63.269 117.937 63.269ZM119.544 61.8525C120.535 61.8525 121.433 61.3129 122.236 60.2337C122.531 59.829 122.839 59.2894 123.16 58.6149V44.6528C122.866 44.356 122.558 44.0862 122.236 43.8434C121.513 43.3038 120.817 43.034 120.147 43.034C118.995 43.034 118.098 43.7085 117.455 45.0575C116.839 46.4065 116.531 48.9022 116.531 52.5445C116.531 56.0249 116.812 58.4531 117.375 59.829C117.964 61.178 118.687 61.8525 119.544 61.8525Z" fill="#00A3FF"/>
</svg>
