<svg width="47" height="45" viewBox="0 0 47 45" fill="none" xmlns="http://www.w3.org/2000/svg">
<path d="M8.44107 0.013916H38.2302C42.7465 0.013916 46.3981 3.66545 46.3981 8.18192V36.8179C46.3981 41.3343 42.7465 44.9859 38.2301 44.9859H8.44107C3.9246 44.9858 0.273071 41.3343 0.273071 36.8178V8.18192C0.273071 3.66545 3.9246 0.013916 8.44107 0.013916V0.013916Z" fill="#001834"/>
<path d="M10.6512 31.5518V11.7757C10.6512 11.6412 10.7088 11.5643 10.8433 11.5643C11.1701 11.5643 11.4776 11.5643 11.9196 11.5451C12.3809 11.5259 12.8613 11.5259 13.3802 11.5066C13.8991 11.4874 14.4565 11.4874 15.0522 11.4682C15.648 11.449 16.2246 11.449 16.8011 11.449C18.377 11.449 19.6839 11.6411 20.7602 12.0447C21.7212 12.3715 22.6052 12.9096 23.3356 13.6206C23.9506 14.2357 24.431 14.9852 24.7385 15.8116C25.0268 16.6188 25.1806 17.4451 25.1806 18.31C25.1806 19.9628 24.7962 21.3273 24.0274 22.4036C23.2587 23.4799 22.1824 24.287 20.9332 24.7483C19.6263 25.2287 18.1849 25.4017 16.609 25.4017C16.1477 25.4017 15.8402 25.4017 15.648 25.3825C15.4558 25.3633 15.1867 25.3633 14.8216 25.3633V31.5325C14.8408 31.667 14.7448 31.7824 14.6102 31.8016C14.591 31.8016 14.5717 31.8016 14.5333 31.8016H10.8818C10.728 31.8016 10.6512 31.7248 10.6512 31.5518V31.5518ZM14.8409 15.2736V21.7311C15.11 21.7503 15.3598 21.7695 15.5904 21.7695H16.6091C17.9361 21.7695 19.4688 21.4577 20.3951 20.4051C21.1923 19.4991 21.1945 17.7026 20.5489 16.7151C19.7824 15.5427 18.2496 15.2031 16.9357 15.2352C16.436 15.2352 15.994 15.2352 15.6288 15.2544C15.2445 15.2351 14.9754 15.2543 14.8409 15.2736V15.2736Z" fill="#00A9FF"/>
<path d="M37.1727 20.5585C36.5961 20.251 35.9811 20.0396 35.3277 19.9051C34.6166 19.7513 33.9055 19.6553 33.1752 19.6553C32.7908 19.6361 32.3872 19.6937 32.0221 19.7898C31.7723 19.8474 31.5609 19.9819 31.4263 20.1742C31.3302 20.328 31.2726 20.5201 31.2726 20.6931C31.2726 20.8661 31.3494 21.039 31.4647 21.1928C31.6377 21.4042 31.8683 21.5772 32.1181 21.7117C32.5602 21.9423 33.0214 22.1538 33.4827 22.3459C34.5205 22.6919 35.5199 23.1723 36.4424 23.7489C37.0766 24.1525 37.5955 24.6906 37.9606 25.3441C38.2681 25.9591 38.4219 26.6317 38.4027 27.3236C38.4219 28.2269 38.1529 29.1301 37.6531 29.8796C37.115 30.6483 36.3655 31.2442 35.5007 31.5901C34.559 31.9937 33.4059 32.2051 32.0221 32.2051C31.1381 32.2051 30.2732 32.1283 29.4084 31.9553C28.7357 31.84 28.0631 31.6286 27.4481 31.3403C27.3136 31.2635 27.2174 31.1289 27.2366 30.9752V27.6311C27.2366 27.5735 27.2558 27.4966 27.3135 27.4581C27.3711 27.4197 27.4288 27.439 27.4864 27.4773C28.236 27.9194 29.024 28.2269 29.8695 28.419C30.5999 28.6112 31.3686 28.7073 32.1373 28.7073C32.8677 28.7073 33.3866 28.6112 33.7325 28.4382C34.04 28.3037 34.2514 27.977 34.2514 27.631C34.2514 27.3619 34.0976 27.1121 33.7902 26.8623C33.4827 26.6125 32.8485 26.3242 31.9067 25.959C30.9265 25.6131 30.0232 25.1518 29.1777 24.5752C28.5819 24.1525 28.0822 23.5951 27.7171 22.9417C27.4096 22.3267 27.2558 21.6541 27.275 20.9814C27.275 20.155 27.5056 19.367 27.9284 18.6559C28.4089 17.8872 29.12 17.2722 29.9464 16.8878C30.8497 16.4265 31.9835 16.2151 33.3481 16.2151C34.1361 16.2151 34.9433 16.2727 35.7312 16.3881C36.3078 16.4649 36.8651 16.6187 37.384 16.8301C37.4609 16.8493 37.5378 16.9262 37.5762 17.0031C37.5954 17.0799 37.6147 17.1569 37.6147 17.2337V20.3663C37.6147 20.4432 37.5762 20.5201 37.5185 20.5585C37.3457 20.597 37.2495 20.597 37.1727 20.5585V20.5585Z" fill="#00A9FF"/>
</svg>
